inDegrees=no
num_controls=7
num_derivatives=13
num_iterations=121
num_multipliers=7
num_parameters=0
num_slacks=7
num_states=26
objective=0.543532
objective_accelerations=0.061004
objective_balance=0.003250
objective_effort=0.047405
objective_height=0.422109
objective_ligament=0.009763
solver_duration=1303.033361
status=Solve_Succeeded
success=true
DataType=double
version=3
OpenSimVersion=4.5
endheader
time	/jointset/ground_pelvis/pelvis_tilt/value	/jointset/ground_pelvis/pelvis_tx/value	/jointset/ground_pelvis/pelvis_ty/value	/jointset/hip_r/hip_flexion_r/value	/jointset/hip_r/hip_adduction_r/value	/jointset/hip_r/hip_rotation_r/value	/jointset/back/lumbar_extension/value	/jointset/patellofemoral_r/patellar_flexion_r/value	/jointset/knee_r/knee_flexion_r/value	/jointset/knee_r/knee_adduction_r/value	/jointset/knee_r/knee_rotation_r/value	/jointset/ankle_r/ankle_angle_r/value	/jointset/subtalar_r/subtalar_angle_r/value	/jointset/ground_pelvis/pelvis_tilt/speed	/jointset/ground_pelvis/pelvis_tx/speed	/jointset/ground_pelvis/pelvis_ty/speed	/jointset/hip_r/hip_flexion_r/speed	/jointset/hip_r/hip_adduction_r/speed	/jointset/hip_r/hip_rotation_r/speed	/jointset/back/lumbar_extension/speed	/jointset/patellofemoral_r/patellar_flexion_r/speed	/jointset/knee_r/knee_flexion_r/speed	/jointset/knee_r/knee_adduction_r/speed	/jointset/knee_r/knee_rotation_r/speed	/jointset/ankle_r/ankle_angle_r/speed	/jointset/subtalar_r/subtalar_angle_r/speed	/forceset/tau_hip_flexion_r	/forceset/tau_hip_adduction_r	/forceset/tau_hip_rotation_r	/forceset/tau_knee_flexion_r	/forceset/tau_ankle_angle_r	/forceset/tau_subtalar_angle_r	/forceset/tau_lumbar_extension	lambda_cid13_p0	lambda_cid14_p0	lambda_cid14_p1	lambda_cid14_p2	lambda_cid14_p3	lambda_cid14_p4	lambda_cid14_p5	/jointset/ground_pelvis/pelvis_tilt/accel	/jointset/ground_pelvis/pelvis_tx/accel	/jointset/ground_pelvis/pelvis_ty/accel	/jointset/hip_r/hip_flexion_r/accel	/jointset/hip_r/hip_adduction_r/accel	/jointset/hip_r/hip_rotation_r/accel	/jointset/back/lumbar_extension/accel	/jointset/patellofemoral_r/patellar_flexion_r/accel	/jointset/knee_r/knee_flexion_r/accel	/jointset/knee_r/knee_adduction_r/accel	/jointset/knee_r/knee_rotation_r/accel	/jointset/ankle_r/ankle_angle_r/accel	/jointset/subtalar_r/subtalar_angle_r/accel	gamma_cid13_p0	gamma_cid14_p0	gamma_cid14_p1	gamma_cid14_p2	gamma_cid14_p3	gamma_cid14_p4	gamma_cid14_p5
0	-0.006512281214631167	0.09625900517906696	0.9427240560189092	0.1762555222360518	-0.2321534907619649	-0.2616182736756937	-0.038598046466844	0.07317863873451154	0.07317863873451017	0.1745326402349622	0.1745114934696745	0.03247278518263602	-0.003453139589079713	0	0	0	0	0	0	0	0	0	0	0	0	0	0.2328251670957394	-0.1599699921873012	-0.04368775146746746	-0.4026886321425318	0.3856156245808059	-0.1457807537231488	-0.1307954123590603	-39.07553533271305	74.07104571988721	-40.48846994597495	-4.341623179717962	-24.1183278780261	-674.0124600003743	55.62596348965008	-2.669184825146591	-1.529345970079555	-0.7842338644401762	11.27152021126688	-0.08794969197056694	2.994692155919103	-5.438622077745174	11.2273381409615	11.22733814096491	-2.845269749492152	0.269077598415796	3.447253248399419	0.6708852404897254	1.010842930197012e-07	3.25800627558907e-08	-7.74070478745076e-07	2.074221929289331e-07	4.738777750747956e-08	2.668025471621046e-08	-3.624814935909717e-07
0.01	-0.006637430012412412	0.09618446734433064	0.9426863194297944	0.1767999975024984	-0.2321566184288637	-0.2614589002114101	-0.0388730926742374	0.07372406958799899	0.07372406958800491	0.1743909980166489	0.174510876409309	0.03264171298586037	-0.003419164840965579	-0.02492721215720719	-0.01475276212499014	-0.00752858847166853	0.1083152190805062	-0.0006639616716054229	0.03177857628446529	-0.054584469497941	0.1086141823655484	0.1086141823655573	-0.02810403851393982	-0.0001667681124710726	0.03374065361976701	0.006744948772309094	0.2295396607276253	-0.171055167483833	-0.04316069014719051	-0.4016077272816844	0.3838965267840712	-0.1346030018286253	-0.1275803157894894	-39.09392677316445	73.9705412924944	-35.72378673630476	-5.018756233520774	-25.51564452059186	-674.5457008246725	64.89856882623839	-2.389105881652503	-1.425011132889037	-0.7343565997829723	10.52454881202076	-0.06146739187205295	3.255077426867264	-5.404643588654825	10.60763981747392	10.60763981747313	-2.759411323702314	-0.1659919045717015	3.330750607332732	0.6687020009406316	1.470660613673845e-07	1.797348800596526e-08	-1.141586022656742e-06	1.994441771063071e-07	1.01741083473121e-07	-2.287795910856917e-07	-4.603575087146604e-07
0.02	-0.00700877422589639	0.0959670479285083	0.9425738599037122	0.1784102301708652	-0.2321675553099009	-0.2609846135718487	-0.03968124041717734	0.07534147857178289	0.07534147857178264	0.1739750273288919	0.1745073040900829	0.03314670316299621	-0.003319260144060538	-0.04923908314019751	-0.02857631621720382	-0.01494458739345605	0.2131514803841436	-0.001561842827869787	0.06298263505521376	-0.1066203071093283	0.214395626055993	0.2143956260559938	-0.05486569388217562	-0.0005910517646660885	0.06721247478222918	0.01318598975818315	0.2262541543595161	-0.1821403427803708	-0.04263362882705386	-0.4005268224208151	0.382177428987335	-0.1234252499341067	-0.1243652192199111	-39.14814699484268	73.96815074881476	-30.96337503740306	-5.670704166615314	-27.11486640165433	-673.5725669249142	73.91970837153141	-2.546116590303186	-1.34350436352429	-0.7617159544639727	10.57572865589314	-0.1347335889023567	2.879788653175727	-4.928895700434409	10.66079040594077	10.66079040594074	-2.576793120351347	0.2175744904710167	3.393486756938422	0.6101036832027094	1.930478297150678e-07	3.366913256039807e-09	-1.509101566568408e-06	1.91466161283681e-07	1.560943894387624e-07	-4.842394368875938e-07	-5.582335238383491e-07
0.03	-0.007620612113155411	0.09561477197103843	0.9423873832762479	0.1810536003870795	-0.2321888668949673	-0.2602042599523274	-0.04099725992940079	0.07800335744894343	0.0780033574489412	0.1732990024532041	0.1745010947327988	0.03398345612721909	-0.003157034503069485	-0.07300898890578283	-0.04184820595728612	-0.02236202727228243	0.315060505838281	-0.002740756095080236	0.09290568541121479	-0.1562479686795509	0.3174937133491831	0.317493713349185	-0.08006970032351778	-0.0006480930523307399	0.09991723089492983	0.01916763709453902	0.218626834828176	-0.1872233760210058	-0.04049957723466358	-0.3909553996653932	0.3661365143555027	-0.1123590947198089	-0.1184748338484641	-39.23652477644325	69.30531507240305	-27.05535762377549	-6.200560204858942	-24.32116144238066	-672.5290316899876	80.50900936491578	-2.274488595473731	-1.314399442910986	-0.733549260569018	9.929183741181795	-0.1156988866941218	3.021272920369746	-4.929357386884713	10.06131369167594	10.06131369167611	-2.451989288488777	-0.1168423561305451	3.175869201902706	0.5782543651331695	2.153583669490496e-07	-3.782326727782252e-09	-1.675607235621618e-06	2.009159791183502e-07	1.835075334764124e-07	-6.423804377631486e-07	-6.195748508062261e-07
0.04	-0.008466561263229597	0.09513070348343552	0.9421263739987999	0.1847021997080353	-0.2322232133509188	-0.2591301338905357	-0.04279948725764084	0.08168161635916683	0.08168161635916718	0.1723789805366187	0.1744944151790951	0.03514063648526197	-0.002937780567458673	-0.09606133570286474	-0.05493482224381197	-0.02985111739019313	0.414197301332728	-0.004168817004841485	0.1217371235095141	-0.2038618703125105	0.4176716326690864	0.4176716326690884	-0.1036651020633854	-0.0006850910498095602	0.1312979535463031	0.02459164868214055	0.2109995152968365	-0.1923064092616369	-0.03836552564224843	-0.3813839769099713	0.3500955997236734	-0.1012929395055069	-0.1125844484770205	-39.35703409232985	64.73105486229856	-23.14488114820898	-6.715900363084934	-21.71976041636317	-670.1374995465807	86.88270408483265	-2.402604796602475	-1.306449672813028	-0.7760460022808345	10.02128266395503	-0.1845631174125155	2.661466201635375	-4.526143712981773	10.07675681128343	10.07675681128319	-2.255072180056447	0.2215831485081929	3.128680064672915	0.4985765334518342	2.371808375621304e-07	-1.077780723189084e-08	-1.837968371172593e-06	2.107251337294585e-07	2.103652102578152e-07	-7.985148645165105e-07	-6.801628852348079e-07
0.05	-0.009540010036269257	0.09451704920471186	0.9417898346439892	0.1893291879587314	-0.2322728702997623	-0.2577747560906691	-0.0450670435030691	0.08634843921835265	0.08634843921835327	0.17123070194776	0.1744891310451377	0.03660596906005232	-0.002666592423534376	-0.1184992319800621	-0.06772593878108829	-0.03748524032901968	0.5106964502990287	-0.005785910608379303	0.1491770225259235	-0.2493047142952791	0.5152209241732231	0.515220924173223	-0.1257356196836804	-0.0004066394480927099	0.1616072142181139	0.02958634924876706	0.2037485159900595	-0.1795413376026743	-0.03659353479824178	-0.3745630470091711	0.3421968937748232	-0.1074803886228425	-0.1068767962098227	-39.50723751074946	62.1104567665862	-26.33147779285011	-6.161564341166476	-20.32348039766001	-668.0763927516243	79.00218617117415	-2.144983318102641	-1.254886146201625	-0.7615294179094265	9.388650541628081	-0.1540060393231492	2.761121912510948	-4.501655069197454	9.523165458214615	9.523165458214343	-2.145062842713686	-0.07415270272771318	2.957886716599472	0.4907075975585688	2.341095235930791e-07	-2.081041165972993e-08	-1.810618034064877e-06	1.944985451039981e-07	2.19978683961797e-07	-8.955959538187679e-07	-6.691736203312022e-07
0.06	-0.01083395802704729	0.09377759506021206	0.9413760672641451	0.1949060516048222	-0.2323394428961408	-0.2561498052684651	-0.04777868825397975	0.09197658502022983	0.09197658502022991	0.1698693139247554	0.1744856056534433	0.03836956177119364	-0.002347299118085727	-0.140161179250226	-0.08009479539904345	-0.04529672239688065	0.604172380411749	-0.007551946511866334	0.1756517279770225	-0.2926795714089657	0.6099362212067927	0.6099362212067874	-0.1462869888918816	-0.0003333425956217915	0.1909499808164968	0.03421268098701372	0.1964975166832904	-0.1667762659437129	-0.03482154395425399	-0.3677421171083636	0.3342981878259742	-0.1136678377401789	-0.1011691439426194	-39.68423354386516	59.57045692535707	-29.52850147344244	-5.577534697358757	-19.09368947457106	-664.7809222124797	70.8970553794578	-2.247414995195757	-1.221997688948822	-0.8115178280877173	9.416638893239002	-0.2143515774023575	2.468427488573279	-4.112546339165348	9.509957917170009	9.509957917169128	-1.951242497637698	0.1805521986590128	2.935381249987319	0.4249027677758618	2.299900502732011e-07	-3.097089498962083e-08	-1.775279845476795e-06	1.771757146580507e-07	2.288660859572558e-07	-9.901905868072944e-07	-6.551705744030832e-07
0.07000000000000001	-0.01234150520521181	0.09291650423223355	0.9408830084307926	0.2014040880178141	-0.2324245061383432	-0.254267059751609	-0.05091315916389909	0.09853899089197354	0.09853899089197146	0.1683102641740586	0.1744840755193152	0.04042198280529644	-0.00198359231314781	-0.1612295617989507	-0.09205508721232325	-0.05335930200449765	0.6949469498914698	-0.009471219740135851	0.2007191075838035	-0.3338871150448055	0.7020686006187226	0.7020686006187246	-0.1652752992684483	-6.136102521431893e-06	0.2193654037804045	0.03848109983121842	0.1890075748803083	-0.161263467238744	-0.03284286092860204	-0.3615922682375869	0.3251380158695925	-0.1126493512854756	-0.095327024006197	-39.88486494338633	56.86844143364629	-29.6622856081719	-5.438544839953849	-17.84117962200936	-661.9409156028851	68.91445093306534	-2.018721222061968	-1.172756598981224	-0.8104658714477178	8.834677763822786	-0.1825035228679851	2.499228746860663	-4.075734046228952	8.993379126723086	8.993379126724742	-1.835737518183443	-0.04611690298328616	2.769337399975864	0.4204173279480234	2.107234616110165e-07	-3.710625636701517e-08	-1.606252107081814e-06	1.588608081524705e-07	2.218521233304286e-07	-1.025009655866988e-06	-6.025499946935269e-07
